#!OML:ASF I:\golf\golf\golf 2\Subject 1\2002-09-07\Subject1.ASF
:FULLY-SPECIFIED
:DEGREES
242
root -5.80013 17.7698 3.45212 3.63823 33.3376 -7.42162
lowerback 0.962562 -9.72686 -14.8257
upperback -2.16102 -13.1625 -5.15703
thorax -0.806907 -6.29813 2.55871
lowerneck -5.14586 22.3138 1.66957
upperneck 13.1854 32.4863 -13.1327
head 7.39513 14.7651 -1.26165
rclavicle 5.92378e-014 3.18055e-015
rhumerus 32.327 -29.4789 -52.3722
rradius 109.602
rwrist 4.8141
rhand -60.6189 19.8883
rfingers 7.12502
rthumb -32.7408 -7.16624
lclavicle 5.92378e-014 3.18055e-015
lhumerus 116.304 -38.7608 44.5119
lradius 40.2971
lwrist 6.65274
lhand -26.1793 -2.40021
lfingers 7.12502
lthumb -179.627 207.579
rfemur -29.2205 22.5227 24.0969
rtibia 32.9412
rfoot -2.21191 26.5208
rtoes 36.0001
lfemur 1.5061 20.1256 6.9639
ltibia 35.1056
lfoot 14.2799 14.6379
ltoes -30.6513
243
root -5.80102 17.779 3.45142 3.72857 33.2371 -7.35318
lowerback 0.96672 -9.70239 -14.8554
upperback -2.15859 -13.1314 -5.16146
thorax -0.806131 -6.28242 2.57118
lowerneck -5.09839 22.3275 1.63497
upperneck 13.0556 32.4661 -13.0885
head 7.32937 14.7728 -1.26482
rclavicle -1.62606e-013 -9.54166e-015
rhumerus 32.3957 -29.6826 -51.8401
rradius 109.596
rwrist 4.76597
rhand -60.7085 19.6644
rfingers 7.12502
rthumb -32.826 -7.3724
lclavicle -1.62606e-013 -9.54166e-015
lhumerus 116.42 -38.5943 44.6602
lradius 40.4164
lwrist 6.69794
lhand -25.8501 -1.87363
lfingers 7.12502
lthumb -179.309 208.105
rfemur -29.1788 22.5004 24.016
rtibia 32.7004
rfoot -1.71435 26.5935
rtoes 36.5973
lfemur 1.48777 20.1779 6.9278
ltibia 35.0582
lfoot 14.6209 14.4336
ltoes -30.8143
244
root -5.8025 17.7884 3.45055 3.8422 33.1802 -7.29164
lowerback 0.92268 -9.68894 -14.9303
upperback -2.14094 -13.1028 -5.12709
thorax -0.743335 -6.27151 2.63231
lowerneck -4.95942 22.3208 1.62591
upperneck 12.7325 32.4122 -13.2485
head 7.22331 14.7707 -1.34553
rclavicle -1.05753e-013 2.8625e-014
rhumerus 32.4412 -29.8809 -51.3984
rradius 109.607
rwrist 4.61752
rhand -60.7814 19.9312
rfingers 7.12502
rthumb -32.8954 -7.09106
lclavicle -1.05753e-013 2.8625e-014
lhumerus 116.448 -38.4906 44.8557
lradius 40.4699
lwrist 6.76343
lhand -26.0014 -1.97717
lfingers 7.12502
lthumb -179.456 208.002
rfemur -29.1662 22.5773 23.896
rtibia 32.4606
rfoot -1.30184 26.566
rtoes 37.2558
lfemur 1.39342 20.2054 6.87979
ltibia 35.0403
lfoot 15.0882 14.1047
ltoes -31.1897
245
root -5.80337 17.7957 3.44684 3.97456 33.1842 -7.27901
lowerback 0.826185 -9.69355 -14.9321
upperback -2.12385 -13.0869 -5.09421
thorax -0.66548 -6.26922 2.64665
lowerneck -4.80423 22.3269 1.66833
upperneck 12.5467 32.3885 -13.3414
head 7.15824 14.7793 -1.40351
rclavicle -1.40342e-013 1.27222e-014
rhumerus 32.4843 -30.078 -51.0176
rradius 109.531
rwrist 4.41943
rhand -60.798 20.0463
rfingers 7.12502
rthumb -32.9112 -6.97257
lclavicle -1.40342e-013 1.27222e-014
lhumerus 116.478 -38.3951 44.9195
lradius 40.4618
lwrist 6.65072
lhand -26.4086 -2.45187
lfingers 7.12502
lthumb -179.849 207.528
rfemur -29.2163 22.5845 23.7969
rtibia 32.2219
rfoot -0.938349 26.588
rtoes 37.879
lfemur 1.19594 20.2292 6.85706
ltibia 35.0495
lfoot 15.5013 13.7544
ltoes -31.4203
246
root -5.80351 17.8017 3.44108 4.13557 33.1978 -7.25372
lowerback 0.728572 -9.70712 -14.934
upperback -2.11351 -13.0834 -5.05349
thorax -0.590568 -6.27268 2.66845
lowerneck -4.73012 22.3733 1.63353
upperneck 12.5084 32.4379 -13.3219
head 7.12886 14.8111 -1.40134
rclavicle 6.36111e-014 3.18055e-014
rhumerus 32.5789 -30.2254 -50.7652
rradius 109.454
rwrist 4.28448
rhand -60.7743 19.9094
rfingers 7.12502
rthumb -32.8887 -7.11423
lclavicle 6.36111e-014 3.18055e-014
lhumerus 116.581 -38.1796 44.9019
lradius 40.4711
lwrist 6.41613
lhand -26.5298 -2.48556
lfingers 7.12502
lthumb -179.966 207.494
rfemur -29.2936 22.5252 23.6896
rtibia 31.9694
rfoot -0.789305 26.6395
rtoes 37.7898
lfemur 0.977787 20.2098 6.78795
ltibia 35.0685
lfoot 15.6322 13.7366
ltoes -30.5554
